solid wire test 3
facet normal 0.0 0.0 -1.0
  outer loop
    vertex 10.0 10.0 0.0
    vertex 0.0 0.0 0.0
    vertex 0.0 10.0 0.0
  endloop
endfacet
facet normal 0.0 0.0 -1.0
  outer loop
    vertex 0.0 0.0 0.0
    vertex 10.0 10.0 0.0
    vertex 10.0 0.0 0.0
  endloop
endfacet
facet normal 0.0 0.0 1.0
  outer loop
    vertex 10.0 0.0 3.999999999999999
    vertex 0.0 10.0 3.999999999999999
    vertex 0.0 0.0 3.999999999999999
  endloop
endfacet
facet normal 0.0 0.0 1.0
  outer loop
    vertex 0.0 10.0 3.999999999999999
    vertex 10.0 0.0 3.999999999999999
    vertex 10.0 10.0 3.999999999999999
  endloop
endfacet
facet normal -1.0 0.0 0.0
  outer loop
    vertex 0.0 10.0 3.999999999999999
    vertex 0.0 0.0 0.0
    vertex 0.0 0.0 3.999999999999999
  endloop
endfacet
facet normal -1.0 0.0 0.0
  outer loop
    vertex 0.0 0.0 0.0
    vertex 0.0 10.0 3.999999999999999
    vertex 0.0 10.0 0.0
  endloop
endfacet
facet normal -0.0 1.0 0.0
  outer loop
    vertex 0.0 10.0 0.0
    vertex 0.9999999999999998 10.0 0.9999999999999999
    vertex 10.0 10.0 0.0
  endloop
endfacet
facet normal -0.0 1.0 0.0
  outer loop
    vertex 0.9999999999999998 10.0 0.9999999999999999
    vertex 0.0 10.0 0.0
    vertex 0.0 10.0 3.999999999999999
  endloop
endfacet
facet normal -0.0 1.0 0.0
  outer loop
    vertex 0.9999999999999998 10.0 0.9999999999999999
    vertex 0.0 10.0 3.999999999999999
    vertex 0.9999999999999998 10.0 2.25
  endloop
endfacet
facet normal -0.0 1.0 0.0
  outer loop
    vertex 0.9999999999999998 10.0 2.25
    vertex 0.0 10.0 3.999999999999999
    vertex 2.25 10.0 2.25
  endloop
endfacet
facet normal -0.0 1.0 0.0
  outer loop
    vertex 2.25 10.0 2.25
    vertex 0.0 10.0 3.999999999999999
    vertex 3.2499999999999996 10.0 2.5
  endloop
endfacet
facet normal -0.0 1.0 0.0
  outer loop
    vertex 3.2499999999999996 10.0 2.5
    vertex 0.0 10.0 3.999999999999999
    vertex 4.499999999999999 10.0 2.5
  endloop
endfacet
facet normal -0.0 1.0 0.0
  outer loop
    vertex 4.499999999999999 10.0 2.5
    vertex 0.0 10.0 3.999999999999999
    vertex 5.5 10.0 2.75
  endloop
endfacet
facet normal -0.0 1.0 0.0
  outer loop
    vertex 5.5 10.0 2.75
    vertex 0.0 10.0 3.999999999999999
    vertex 6.75 10.0 2.75
  endloop
endfacet
facet normal -0.0 1.0 0.0
  outer loop
    vertex 6.75 10.0 2.75
    vertex 0.0 10.0 3.999999999999999
    vertex 7.75 10.0 3.0
  endloop
endfacet
facet normal -0.0 1.0 0.0
  outer loop
    vertex 7.75 10.0 3.0
    vertex 0.0 10.0 3.999999999999999
    vertex 9.0 10.0 3.0
  endloop
endfacet
facet normal -0.0 1.0 0.0
  outer loop
    vertex 10.0 10.0 0.0
    vertex 9.0 10.0 0.9999999999999999
    vertex 10.0 10.0 3.999999999999999
  endloop
endfacet
facet normal -0.0 1.0 0.0
  outer loop
    vertex 9.0 10.0 0.9999999999999999
    vertex 10.0 10.0 0.0
    vertex 0.9999999999999998 10.0 0.9999999999999999
  endloop
endfacet
facet normal -0.0 1.0 0.0
  outer loop
    vertex 9.0 10.0 0.9999999999999999
    vertex 0.9999999999999998 10.0 0.9999999999999999
    vertex 2.25 10.0 0.9999999999999999
  endloop
endfacet
facet normal -0.0 1.0 0.0
  outer loop
    vertex 9.0 10.0 0.9999999999999999
    vertex 2.25 10.0 0.9999999999999999
    vertex 3.2499999999999996 10.0 0.9999999999999999
  endloop
endfacet
facet normal -0.0 1.0 0.0
  outer loop
    vertex 9.0 10.0 0.9999999999999999
    vertex 3.2499999999999996 10.0 0.9999999999999999
    vertex 4.499999999999999 10.0 0.9999999999999999
  endloop
endfacet
facet normal -0.0 1.0 0.0
  outer loop
    vertex 9.0 10.0 0.9999999999999999
    vertex 4.499999999999999 10.0 0.9999999999999999
    vertex 5.5 10.0 0.9999999999999999
  endloop
endfacet
facet normal -0.0 1.0 0.0
  outer loop
    vertex 9.0 10.0 0.9999999999999999
    vertex 5.5 10.0 0.9999999999999999
    vertex 6.75 10.0 0.9999999999999999
  endloop
endfacet
facet normal -0.0 1.0 0.0
  outer loop
    vertex 9.0 10.0 0.9999999999999999
    vertex 6.75 10.0 0.9999999999999999
    vertex 7.75 10.0 0.9999999999999999
  endloop
endfacet
facet normal -0.0 1.0 0.0
  outer loop
    vertex 10.0 10.0 3.999999999999999
    vertex 9.0 10.0 0.9999999999999999
    vertex 9.0 10.0 3.0
  endloop
endfacet
facet normal -0.0 1.0 0.0
  outer loop
    vertex 10.0 10.0 3.999999999999999
    vertex 9.0 10.0 3.0
    vertex 0.0 10.0 3.999999999999999
  endloop
endfacet
facet normal -0.0 1.0 0.0
  outer loop
    vertex 6.75 10.0 2.75
    vertex 7.75 10.0 0.9999999999999999
    vertex 6.75 10.0 0.9999999999999999
  endloop
endfacet
facet normal -0.0 1.0 0.0
  outer loop
    vertex 7.75 10.0 0.9999999999999999
    vertex 6.75 10.0 2.75
    vertex 7.75 10.0 3.0
  endloop
endfacet
facet normal -0.0 1.0 0.0
  outer loop
    vertex 4.499999999999999 10.0 2.5
    vertex 5.5 10.0 0.9999999999999999
    vertex 4.499999999999999 10.0 0.9999999999999999
  endloop
endfacet
facet normal -0.0 1.0 0.0
  outer loop
    vertex 5.5 10.0 0.9999999999999999
    vertex 4.499999999999999 10.0 2.5
    vertex 5.5 10.0 2.75
  endloop
endfacet
facet normal -0.0 1.0 0.0
  outer loop
    vertex 2.25 10.0 2.25
    vertex 3.2499999999999996 10.0 0.9999999999999999
    vertex 2.25 10.0 0.9999999999999999
  endloop
endfacet
facet normal -0.0 1.0 0.0
  outer loop
    vertex 3.2499999999999996 10.0 0.9999999999999999
    vertex 2.25 10.0 2.25
    vertex 3.2499999999999996 10.0 2.5
  endloop
endfacet
facet normal 1.0 0.0 0.0
  outer loop
    vertex 10.0 10.0 0.0
    vertex 10.0 0.0 3.999999999999999
    vertex 10.0 0.0 0.0
  endloop
endfacet
facet normal 1.0 0.0 0.0
  outer loop
    vertex 10.0 0.0 3.999999999999999
    vertex 10.0 10.0 0.0
    vertex 10.0 10.0 3.999999999999999
  endloop
endfacet
facet normal -0.0 -1.0 -0.0
  outer loop
    vertex 3.2499999999999996 0.0 2.5
    vertex 2.25 0.0 0.9999999999999999
    vertex 3.2499999999999996 0.0 0.9999999999999999
  endloop
endfacet
facet normal -0.0 -1.0 -0.0
  outer loop
    vertex 2.25 0.0 0.9999999999999999
    vertex 3.2499999999999996 0.0 2.5
    vertex 2.25 0.0 2.25
  endloop
endfacet
facet normal -0.0 -1.0 -0.0
  outer loop
    vertex 2.25 0.0 2.25
    vertex 3.2499999999999996 0.0 2.5
    vertex 0.9999999999999998 0.0 2.25
  endloop
endfacet
facet normal -0.0 -1.0 -0.0
  outer loop
    vertex 5.5 0.0 2.75
    vertex 4.499999999999999 0.0 0.9999999999999999
    vertex 5.5 0.0 0.9999999999999999
  endloop
endfacet
facet normal -0.0 -1.0 -0.0
  outer loop
    vertex 4.499999999999999 0.0 0.9999999999999999
    vertex 5.5 0.0 2.75
    vertex 4.499999999999999 0.0 2.5
  endloop
endfacet
facet normal -0.0 -1.0 -0.0
  outer loop
    vertex 4.499999999999999 0.0 2.5
    vertex 5.5 0.0 2.75
    vertex 3.2499999999999996 0.0 2.5
  endloop
endfacet
facet normal -0.0 -1.0 -0.0
  outer loop
    vertex 7.75 0.0 3.0
    vertex 6.75 0.0 0.9999999999999999
    vertex 7.75 0.0 0.9999999999999999
  endloop
endfacet
facet normal -0.0 -1.0 -0.0
  outer loop
    vertex 6.75 0.0 0.9999999999999999
    vertex 7.75 0.0 3.0
    vertex 6.75 0.0 2.75
  endloop
endfacet
facet normal -0.0 -1.0 -0.0
  outer loop
    vertex 6.75 0.0 2.75
    vertex 7.75 0.0 3.0
    vertex 5.5 0.0 2.75
  endloop
endfacet
facet normal -0.0 -1.0 -0.0
  outer loop
    vertex 10.0 0.0 0.0
    vertex 9.0 0.0 0.9999999999999999
    vertex 0.0 0.0 0.0
  endloop
endfacet
facet normal -0.0 -1.0 -0.0
  outer loop
    vertex 9.0 0.0 0.9999999999999999
    vertex 10.0 0.0 0.0
    vertex 10.0 0.0 3.999999999999999
  endloop
endfacet
facet normal -0.0 -1.0 -0.0
  outer loop
    vertex 9.0 0.0 0.9999999999999999
    vertex 10.0 0.0 3.999999999999999
    vertex 9.0 0.0 3.0
  endloop
endfacet
facet normal -0.0 -1.0 -0.0
  outer loop
    vertex 9.0 0.0 3.0
    vertex 10.0 0.0 3.999999999999999
    vertex 7.75 0.0 3.0
  endloop
endfacet
facet normal -0.0 -1.0 -0.0
  outer loop
    vertex 0.0 0.0 0.0
    vertex 0.9999999999999998 0.0 0.9999999999999999
    vertex 0.0 0.0 3.999999999999999
  endloop
endfacet
facet normal -0.0 -1.0 -0.0
  outer loop
    vertex 0.9999999999999998 0.0 0.9999999999999999
    vertex 0.0 0.0 0.0
    vertex 9.0 0.0 0.9999999999999999
  endloop
endfacet
facet normal -0.0 -1.0 -0.0
  outer loop
    vertex 0.9999999999999998 0.0 0.9999999999999999
    vertex 9.0 0.0 0.9999999999999999
    vertex 7.75 0.0 0.9999999999999999
  endloop
endfacet
facet normal -0.0 -1.0 -0.0
  outer loop
    vertex 0.9999999999999998 0.0 0.9999999999999999
    vertex 7.75 0.0 0.9999999999999999
    vertex 6.75 0.0 0.9999999999999999
  endloop
endfacet
facet normal -0.0 -1.0 -0.0
  outer loop
    vertex 0.9999999999999998 0.0 0.9999999999999999
    vertex 6.75 0.0 0.9999999999999999
    vertex 5.5 0.0 0.9999999999999999
  endloop
endfacet
facet normal -0.0 -1.0 -0.0
  outer loop
    vertex 0.9999999999999998 0.0 0.9999999999999999
    vertex 5.5 0.0 0.9999999999999999
    vertex 4.499999999999999 0.0 0.9999999999999999
  endloop
endfacet
facet normal -0.0 -1.0 -0.0
  outer loop
    vertex 0.9999999999999998 0.0 0.9999999999999999
    vertex 4.499999999999999 0.0 0.9999999999999999
    vertex 3.2499999999999996 0.0 0.9999999999999999
  endloop
endfacet
facet normal -0.0 -1.0 -0.0
  outer loop
    vertex 0.9999999999999998 0.0 0.9999999999999999
    vertex 3.2499999999999996 0.0 0.9999999999999999
    vertex 2.25 0.0 0.9999999999999999
  endloop
endfacet
facet normal -0.0 -1.0 -0.0
  outer loop
    vertex 0.0 0.0 3.999999999999999
    vertex 0.9999999999999998 0.0 0.9999999999999999
    vertex 0.9999999999999998 0.0 2.25
  endloop
endfacet
facet normal -0.0 -1.0 -0.0
  outer loop
    vertex 0.0 0.0 3.999999999999999
    vertex 0.9999999999999998 0.0 2.25
    vertex 3.2499999999999996 0.0 2.5
  endloop
endfacet
facet normal -0.0 -1.0 -0.0
  outer loop
    vertex 0.0 0.0 3.999999999999999
    vertex 3.2499999999999996 0.0 2.5
    vertex 5.5 0.0 2.75
  endloop
endfacet
facet normal -0.0 -1.0 -0.0
  outer loop
    vertex 0.0 0.0 3.999999999999999
    vertex 5.5 0.0 2.75
    vertex 7.75 0.0 3.0
  endloop
endfacet
facet normal -0.0 -1.0 -0.0
  outer loop
    vertex 0.0 0.0 3.999999999999999
    vertex 7.75 0.0 3.0
    vertex 10.0 0.0 3.999999999999999
  endloop
endfacet
facet normal -0.0 -0.0 -1.0
  outer loop
    vertex 2.25 10.0 2.25
    vertex 0.9999999999999998 0.0 2.25
    vertex 0.9999999999999998 10.0 2.25
  endloop
endfacet
facet normal -0.0 -0.0 -1.0
  outer loop
    vertex 0.9999999999999998 0.0 2.25
    vertex 2.25 10.0 2.25
    vertex 2.25 0.0 2.25
  endloop
endfacet
facet normal 1.0 0.0 0.0
  outer loop
    vertex 0.9999999999999998 10.0 0.9999999999999999
    vertex 0.9999999999999998 0.0 2.25
    vertex 0.9999999999999998 0.0 0.9999999999999999
  endloop
endfacet
facet normal 1.0 0.0 0.0
  outer loop
    vertex 0.9999999999999998 0.0 2.25
    vertex 0.9999999999999998 10.0 0.9999999999999999
    vertex 0.9999999999999998 10.0 2.25
  endloop
endfacet
facet normal -0.0 -0.0 1.0
  outer loop
    vertex 2.25 0.0 0.9999999999999999
    vertex 0.9999999999999998 10.0 0.9999999999999999
    vertex 0.9999999999999998 0.0 0.9999999999999999
  endloop
endfacet
facet normal -0.0 -0.0 1.0
  outer loop
    vertex 0.9999999999999998 10.0 0.9999999999999999
    vertex 2.25 0.0 0.9999999999999999
    vertex 2.25 10.0 0.9999999999999999
  endloop
endfacet
facet normal -1.0 -0.0 0.0
  outer loop
    vertex 2.25 10.0 2.25
    vertex 2.25 0.0 0.9999999999999999
    vertex 2.25 0.0 2.25
  endloop
endfacet
facet normal -1.0 -0.0 0.0
  outer loop
    vertex 2.25 0.0 0.9999999999999999
    vertex 2.25 10.0 2.25
    vertex 2.25 10.0 0.9999999999999999
  endloop
endfacet
facet normal -0.0 -0.0 -0.9999999999999999
  outer loop
    vertex 4.499999999999999 10.0 2.5
    vertex 3.2499999999999996 0.0 2.5
    vertex 3.2499999999999996 10.0 2.5
  endloop
endfacet
facet normal -0.0 -0.0 -0.9999999999999999
  outer loop
    vertex 3.2499999999999996 0.0 2.5
    vertex 4.499999999999999 10.0 2.5
    vertex 4.499999999999999 0.0 2.5
  endloop
endfacet
facet normal 0.9999999999999999 0.0 0.0
  outer loop
    vertex 3.2499999999999996 10.0 0.9999999999999999
    vertex 3.2499999999999996 0.0 2.5
    vertex 3.2499999999999996 0.0 0.9999999999999999
  endloop
endfacet
facet normal 0.9999999999999999 0.0 0.0
  outer loop
    vertex 3.2499999999999996 0.0 2.5
    vertex 3.2499999999999996 10.0 0.9999999999999999
    vertex 3.2499999999999996 10.0 2.5
  endloop
endfacet
facet normal -0.0 -0.0 0.9999999999999999
  outer loop
    vertex 4.499999999999999 0.0 0.9999999999999999
    vertex 3.2499999999999996 10.0 0.9999999999999999
    vertex 3.2499999999999996 0.0 0.9999999999999999
  endloop
endfacet
facet normal -0.0 -0.0 0.9999999999999999
  outer loop
    vertex 3.2499999999999996 10.0 0.9999999999999999
    vertex 4.499999999999999 0.0 0.9999999999999999
    vertex 4.499999999999999 10.0 0.9999999999999999
  endloop
endfacet
facet normal -0.9999999999999999 -0.0 0.0
  outer loop
    vertex 4.499999999999999 10.0 2.5
    vertex 4.499999999999999 0.0 0.9999999999999999
    vertex 4.499999999999999 0.0 2.5
  endloop
endfacet
facet normal -0.9999999999999999 -0.0 0.0
  outer loop
    vertex 4.499999999999999 0.0 0.9999999999999999
    vertex 4.499999999999999 10.0 2.5
    vertex 4.499999999999999 10.0 0.9999999999999999
  endloop
endfacet
facet normal 1.0 0.0 0.0
  outer loop
    vertex 5.5 10.0 0.9999999999999999
    vertex 5.5 0.0 2.75
    vertex 5.5 0.0 0.9999999999999999
  endloop
endfacet
facet normal 1.0 0.0 0.0
  outer loop
    vertex 5.5 0.0 2.75
    vertex 5.5 10.0 0.9999999999999999
    vertex 5.5 10.0 2.75
  endloop
endfacet
facet normal -0.0 -0.0 1.0
  outer loop
    vertex 6.75 0.0 0.9999999999999999
    vertex 5.5 10.0 0.9999999999999999
    vertex 5.5 0.0 0.9999999999999999
  endloop
endfacet
facet normal -0.0 -0.0 1.0
  outer loop
    vertex 5.5 10.0 0.9999999999999999
    vertex 6.75 0.0 0.9999999999999999
    vertex 6.75 10.0 0.9999999999999999
  endloop
endfacet
facet normal -1.0 -0.0 0.0
  outer loop
    vertex 6.75 10.0 2.75
    vertex 6.75 0.0 0.9999999999999999
    vertex 6.75 0.0 2.75
  endloop
endfacet
facet normal -1.0 -0.0 0.0
  outer loop
    vertex 6.75 0.0 0.9999999999999999
    vertex 6.75 10.0 2.75
    vertex 6.75 10.0 0.9999999999999999
  endloop
endfacet
facet normal -0.0 -0.0 -1.0
  outer loop
    vertex 6.75 10.0 2.75
    vertex 5.5 0.0 2.75
    vertex 5.5 10.0 2.75
  endloop
endfacet
facet normal -0.0 -0.0 -1.0
  outer loop
    vertex 5.5 0.0 2.75
    vertex 6.75 10.0 2.75
    vertex 6.75 0.0 2.75
  endloop
endfacet
facet normal 0.9999999999999999 0.0 0.0
  outer loop
    vertex 7.75 10.0 0.9999999999999999
    vertex 7.75 0.0 3.0
    vertex 7.75 0.0 0.9999999999999999
  endloop
endfacet
facet normal 0.9999999999999999 0.0 0.0
  outer loop
    vertex 7.75 0.0 3.0
    vertex 7.75 10.0 0.9999999999999999
    vertex 7.75 10.0 3.0
  endloop
endfacet
facet normal -0.0 -0.0 1.0
  outer loop
    vertex 9.0 0.0 0.9999999999999999
    vertex 7.75 10.0 0.9999999999999999
    vertex 7.75 0.0 0.9999999999999999
  endloop
endfacet
facet normal -0.0 -0.0 1.0
  outer loop
    vertex 7.75 10.0 0.9999999999999999
    vertex 9.0 0.0 0.9999999999999999
    vertex 9.0 10.0 0.9999999999999999
  endloop
endfacet
facet normal -0.9999999999999999 -0.0 0.0
  outer loop
    vertex 9.0 10.0 3.0
    vertex 9.0 0.0 0.9999999999999999
    vertex 9.0 0.0 3.0
  endloop
endfacet
facet normal -0.9999999999999999 -0.0 0.0
  outer loop
    vertex 9.0 0.0 0.9999999999999999
    vertex 9.0 10.0 3.0
    vertex 9.0 10.0 0.9999999999999999
  endloop
endfacet
facet normal -0.0 -0.0 -1.0
  outer loop
    vertex 9.0 10.0 3.0
    vertex 7.75 0.0 3.0
    vertex 7.75 10.0 3.0
  endloop
endfacet
facet normal -0.0 -0.0 -1.0
  outer loop
    vertex 7.75 0.0 3.0
    vertex 9.0 10.0 3.0
    vertex 9.0 0.0 3.0
  endloop
endfacet
endsolid wire test 3
