solid wire test 2a
facet normal 0.0 0.0 -1.0
  outer loop
    vertex 14.499999999999998 10.0 1.8885334875764e-14
    vertex 0.9999999999999999 0.0 0.0
    vertex 0.9999999999999999 10.0 0.0
  endloop
endfacet
facet normal 0.0 0.0 -1.0
  outer loop
    vertex 0.9999999999999999 0.0 0.0
    vertex 14.499999999999998 10.0 1.8885334875764e-14
    vertex 14.499999999999998 9.39988827515981e-17 1.8885334875764e-14
  endloop
endfacet
facet normal 3.01895126355429e-18 -1.0 1.1967874312165153e-17
  outer loop
    vertex 14.499999999999998 9.39988827515981e-17 1.8885334875764e-14
    vertex 13.499999999999998 8.132654968200901e-17 1.0000000000000002
    vertex 11.500000000000002 4.446497476188074e-16 0.9999999999999989
  endloop
endfacet
facet normal 3.01895126355429e-18 -1.0 1.1967874312165153e-17
  outer loop
    vertex 13.499999999999998 8.132654968200901e-17 1.0000000000000002
    vertex 14.499999999999998 9.39988827515981e-17 1.8885334875764e-14
    vertex 14.499999999999988 4.7995905902201015e-17 3.989100000000029
  endloop
endfacet
facet normal 3.01895126355429e-18 -1.0 1.1967874312165153e-17
  outer loop
    vertex 13.499999999999998 8.132654968200901e-17 1.0000000000000002
    vertex 14.499999999999988 4.7995905902201015e-17 3.989100000000029
    vertex 13.499999999999993 1.0766768034758628e-16 3.9891000000000263
  endloop
endfacet
facet normal 3.01895126355429e-18 -1.0 1.1967874312165153e-17
  outer loop
    vertex 11.500000000000002 4.446497476188074e-16 0.9999999999999989
    vertex 10.5 1.2689849171465572e-15 0.9999999999999998
    vertex 8.73790000000001 0.0 0.9999999999999996
  endloop
endfacet
facet normal 3.01895126355429e-18 -1.0 1.1967874312165153e-17
  outer loop
    vertex 10.5 1.2689849171465572e-15 0.9999999999999998
    vertex 11.500000000000002 4.446497476188074e-16 0.9999999999999989
    vertex 11.50000000000001 5.96017247130506e-16 3.989100000000017
  endloop
endfacet
facet normal 3.01895126355429e-18 -1.0 1.1967874312165153e-17
  outer loop
    vertex 10.5 1.2689849171465572e-15 0.9999999999999998
    vertex 11.50000000000001 5.96017247130506e-16 3.989100000000017
    vertex 10.5 1.3480083091432816e-15 3.9891000000000028
  endloop
endfacet
facet normal 3.01895126355429e-18 -1.0 1.1967874312165153e-17
  outer loop
    vertex 8.73790000000001 1.0536452266229907e-16 3.9891000000000014
    vertex 7.75 0.0 0.9999999999999996
    vertex 8.73790000000001 0.0 0.9999999999999996
  endloop
endfacet
facet normal 3.01895126355429e-18 -1.0 1.1967874312165153e-17
  outer loop
    vertex 7.75 0.0 0.9999999999999996
    vertex 8.73790000000001 1.0536452266229907e-16 3.9891000000000014
    vertex 7.75 1.0536452266229907e-16 3.9891000000000014
  endloop
endfacet
facet normal 3.01895126355429e-18 -1.0 1.1967874312165153e-17
  outer loop
    vertex 6.249999999999999 -3.1724622928663847e-16 3.9891
    vertex 5.250000000000011 0.0 0.9999999999999999
    vertex 6.249999999999999 -3.1724622928663847e-16 0.9999999999999999
  endloop
endfacet
facet normal 3.01895126355429e-18 -1.0 1.1967874312165153e-17
  outer loop
    vertex 5.250000000000011 0.0 0.9999999999999999
    vertex 6.249999999999999 -3.1724622928663847e-16 3.9891
    vertex 5.250000000000011 0.0 3.9891
  endloop
endfacet
facet normal 3.01895126355429e-18 -1.0 1.1967874312165153e-17
  outer loop
    vertex 3.9999999999999996 1.2689849171465537e-15 3.9999999999999996
    vertex 3.0 0.0 0.9999999999999999
    vertex 3.9999999999999996 1.2689849171465537e-15 0.9999999999999999
  endloop
endfacet
facet normal 3.01895126355429e-18 -1.0 1.1967874312165153e-17
  outer loop
    vertex 3.0 0.0 0.9999999999999999
    vertex 3.9999999999999996 1.2689849171465537e-15 3.9999999999999996
    vertex 3.0 0.0 3.9999999999999996
  endloop
endfacet
facet normal 3.01895126355429e-18 -1.0 1.1967874312165153e-17
  outer loop
    vertex 0.9999999999999999 0.0 0.0
    vertex 1.9999999999999998 0.0 0.9999999999999999
    vertex 0.9999999999999999 0.0 3.9999999999999996
  endloop
endfacet
facet normal 3.01895126355429e-18 -1.0 1.1967874312165153e-17
  outer loop
    vertex 1.9999999999999998 0.0 0.9999999999999999
    vertex 0.9999999999999999 0.0 0.0
    vertex 14.499999999999998 9.39988827515981e-17 1.8885334875764e-14
  endloop
endfacet
facet normal 3.01895126355429e-18 -1.0 1.1967874312165153e-17
  outer loop
    vertex 1.9999999999999998 0.0 0.9999999999999999
    vertex 14.499999999999998 9.39988827515981e-17 1.8885334875764e-14
    vertex 11.500000000000002 4.446497476188074e-16 0.9999999999999989
  endloop
endfacet
facet normal 3.01895126355429e-18 -1.0 1.1967874312165153e-17
  outer loop
    vertex 1.9999999999999998 0.0 0.9999999999999999
    vertex 11.500000000000002 4.446497476188074e-16 0.9999999999999989
    vertex 7.75 0.0 0.9999999999999996
  endloop
endfacet
facet normal 3.01895126355429e-18 -1.0 1.1967874312165153e-17
  outer loop
    vertex 7.75 0.0 0.9999999999999996
    vertex 11.500000000000002 4.446497476188074e-16 0.9999999999999989
    vertex 8.73790000000001 0.0 0.9999999999999996
  endloop
endfacet
facet normal 3.01895126355429e-18 -1.0 1.1967874312165153e-17
  outer loop
    vertex 1.9999999999999998 0.0 0.9999999999999999
    vertex 7.75 0.0 0.9999999999999996
    vertex 6.249999999999999 -3.1724622928663847e-16 0.9999999999999999
  endloop
endfacet
facet normal 3.01895126355429e-18 -1.0 1.1967874312165153e-17
  outer loop
    vertex 1.9999999999999998 0.0 0.9999999999999999
    vertex 6.249999999999999 -3.1724622928663847e-16 0.9999999999999999
    vertex 5.250000000000011 0.0 0.9999999999999999
  endloop
endfacet
facet normal 3.01895126355429e-18 -1.0 1.1967874312165153e-17
  outer loop
    vertex 1.9999999999999998 0.0 0.9999999999999999
    vertex 5.250000000000011 0.0 0.9999999999999999
    vertex 3.9999999999999996 1.2689849171465537e-15 0.9999999999999999
  endloop
endfacet
facet normal 3.01895126355429e-18 -1.0 1.1967874312165153e-17
  outer loop
    vertex 1.9999999999999998 0.0 0.9999999999999999
    vertex 3.9999999999999996 1.2689849171465537e-15 0.9999999999999999
    vertex 3.0 0.0 0.9999999999999999
  endloop
endfacet
facet normal 3.01895126355429e-18 -1.0 1.1967874312165153e-17
  outer loop
    vertex 0.9999999999999999 0.0 3.9999999999999996
    vertex 1.9999999999999998 0.0 0.9999999999999999
    vertex 1.9999999999999998 0.0 3.9999999999999996
  endloop
endfacet
facet normal -1.0 0.0 0.0
  outer loop
    vertex 0.9999999999999999 10.0 3.9999999999999996
    vertex 0.9999999999999999 0.0 0.0
    vertex 0.9999999999999999 0.0 3.9999999999999996
  endloop
endfacet
facet normal -1.0 0.0 0.0
  outer loop
    vertex 0.9999999999999999 0.0 0.0
    vertex 0.9999999999999999 10.0 3.9999999999999996
    vertex 0.9999999999999999 10.0 0.0
  endloop
endfacet
facet normal -0.0 1.0 -0.0
  outer loop
    vertex 0.9999999999999999 10.0 0.0
    vertex 1.999999999999998 10.0 0.9999999999999999
    vertex 14.499999999999998 10.0 1.8885334875764e-14
  endloop
endfacet
facet normal -0.0 1.0 -0.0
  outer loop
    vertex 1.999999999999998 10.0 0.9999999999999999
    vertex 0.9999999999999999 10.0 0.0
    vertex 0.9999999999999999 10.0 3.9999999999999996
  endloop
endfacet
facet normal -0.0 1.0 -0.0
  outer loop
    vertex 14.499999999999998 10.0 1.8885334875764e-14
    vertex 1.999999999999998 10.0 0.9999999999999999
    vertex 7.75 10.0 0.9999999999999992
  endloop
endfacet
facet normal -0.0 1.0 -0.0
  outer loop
    vertex 14.499999999999998 10.0 1.8885334875764e-14
    vertex 7.75 10.0 0.9999999999999992
    vertex 11.500000000000004 10.0 0.9999999999999989
  endloop
endfacet
facet normal -0.0 1.0 -0.0
  outer loop
    vertex 1.999999999999998 10.0 0.9999999999999999
    vertex 0.9999999999999999 10.0 3.9999999999999996
    vertex 1.999999999999998 10.0 3.9999999999999996
  endloop
endfacet
facet normal -0.0 1.0 -0.0
  outer loop
    vertex 2.9999999999999973 10.0 3.9999999999999996
    vertex 4.000000000000012 10.000000000000002 0.9999999999999999
    vertex 2.9999999999999973 10.0 0.9999999999999999
  endloop
endfacet
facet normal -0.0 1.0 -0.0
  outer loop
    vertex 4.000000000000012 10.000000000000002 0.9999999999999999
    vertex 2.9999999999999973 10.0 3.9999999999999996
    vertex 4.000000000000012 10.000000000000002 3.9999999999999996
  endloop
endfacet
facet normal -0.0 1.0 -0.0
  outer loop
    vertex 1.999999999999998 10.0 0.9999999999999999
    vertex 6.2499999999999964 10.0 0.9999999999999999
    vertex 7.75 10.0 0.9999999999999992
  endloop
endfacet
facet normal -0.0 1.0 -0.0
  outer loop
    vertex 6.2499999999999964 10.0 0.9999999999999999
    vertex 1.999999999999998 10.0 0.9999999999999999
    vertex 2.9999999999999973 10.0 0.9999999999999999
  endloop
endfacet
facet normal -0.0 1.0 -0.0
  outer loop
    vertex 6.2499999999999964 10.0 0.9999999999999999
    vertex 2.9999999999999973 10.0 0.9999999999999999
    vertex 4.000000000000012 10.000000000000002 0.9999999999999999
  endloop
endfacet
facet normal -0.0 1.0 -0.0
  outer loop
    vertex 6.2499999999999964 10.0 0.9999999999999999
    vertex 4.000000000000012 10.000000000000002 0.9999999999999999
    vertex 5.250000000000011 10.0 0.9999999999999999
  endloop
endfacet
facet normal -0.0 1.0 -0.0
  outer loop
    vertex 6.2499999999999964 10.0 0.9999999999999999
    vertex 5.250000000000011 10.0 0.9999999999999999
    vertex 5.250000000000011 10.0 3.9891
  endloop
endfacet
facet normal -0.0 1.0 -0.0
  outer loop
    vertex 6.2499999999999964 10.0 0.9999999999999999
    vertex 5.250000000000011 10.0 3.9891
    vertex 6.2499999999999964 10.0 3.9891
  endloop
endfacet
facet normal -0.0 1.0 -0.0
  outer loop
    vertex 7.75 10.0 3.9891000000000014
    vertex 8.73790000000001 10.0 0.9999999999999992
    vertex 7.75 10.0 0.9999999999999992
  endloop
endfacet
facet normal -0.0 1.0 -0.0
  outer loop
    vertex 8.73790000000001 10.0 0.9999999999999992
    vertex 7.75 10.0 3.9891000000000014
    vertex 8.73790000000001 10.0 3.9891000000000014
  endloop
endfacet
facet normal -0.0 1.0 -0.0
  outer loop
    vertex 11.500000000000004 10.0 0.9999999999999989
    vertex 10.500000000000004 10.000000000000002 0.9999999999999996
    vertex 11.500000000000016 10.0 3.989100000000016
  endloop
endfacet
facet normal -0.0 1.0 -0.0
  outer loop
    vertex 10.500000000000004 10.000000000000002 0.9999999999999996
    vertex 11.500000000000004 10.0 0.9999999999999989
    vertex 8.73790000000001 10.0 0.9999999999999992
  endloop
endfacet
facet normal -0.0 1.0 -0.0
  outer loop
    vertex 8.73790000000001 10.0 0.9999999999999992
    vertex 11.500000000000004 10.0 0.9999999999999989
    vertex 7.75 10.0 0.9999999999999992
  endloop
endfacet
facet normal -0.0 1.0 -0.0
  outer loop
    vertex 11.500000000000016 10.0 3.989100000000016
    vertex 10.500000000000004 10.000000000000002 0.9999999999999996
    vertex 10.500000000000004 10.000000000000002 3.9891000000000028
  endloop
endfacet
facet normal -0.0 1.0 -0.0
  outer loop
    vertex 14.499999999999998 10.0 1.8885334875764e-14
    vertex 13.499999999999998 9.999999999999998 1.0
    vertex 14.499999999999993 10.0 3.989100000000029
  endloop
endfacet
facet normal -0.0 1.0 -0.0
  outer loop
    vertex 13.499999999999998 9.999999999999998 1.0
    vertex 14.499999999999998 10.0 1.8885334875764e-14
    vertex 11.500000000000004 10.0 0.9999999999999989
  endloop
endfacet
facet normal -0.0 1.0 -0.0
  outer loop
    vertex 14.499999999999993 10.0 3.989100000000029
    vertex 13.499999999999998 9.999999999999998 1.0
    vertex 13.499999999999993 9.999999999999998 3.9891000000000263
  endloop
endfacet
facet normal -0.0 -0.0 1.0
  outer loop
    vertex 1.9999999999999998 0.0 0.9999999999999999
    vertex 2.9999999999999973 10.0 0.9999999999999999
    vertex 1.999999999999998 10.0 0.9999999999999999
  endloop
endfacet
facet normal -0.0 -0.0 1.0
  outer loop
    vertex 2.9999999999999973 10.0 0.9999999999999999
    vertex 1.9999999999999998 0.0 0.9999999999999999
    vertex 3.0 0.0 0.9999999999999999
  endloop
endfacet
facet normal -0.0 -0.0 1.0
  outer loop
    vertex 5.250000000000011 0.0 0.9999999999999999
    vertex 4.000000000000012 10.000000000000002 0.9999999999999999
    vertex 3.9999999999999996 1.2689849171465537e-15 0.9999999999999999
  endloop
endfacet
facet normal -0.0 -0.0 1.0
  outer loop
    vertex 4.000000000000012 10.000000000000002 0.9999999999999999
    vertex 5.250000000000011 0.0 0.9999999999999999
    vertex 5.250000000000011 10.0 0.9999999999999999
  endloop
endfacet
facet normal 2.6437185773886364e-16 1.762479051592438e-17 1.0
  outer loop
    vertex 6.249999999999999 -3.1724622928663847e-16 0.9999999999999999
    vertex 7.75 10.0 0.9999999999999992
    vertex 6.2499999999999964 10.0 0.9999999999999999
  endloop
endfacet
facet normal 2.6437185773886364e-16 1.762479051592438e-17 1.0
  outer loop
    vertex 7.75 10.0 0.9999999999999992
    vertex 6.249999999999999 -3.1724622928663847e-16 0.9999999999999999
    vertex 7.75 0.0 0.9999999999999996
  endloop
endfacet
facet normal 0.0 0.0 1.0
  outer loop
    vertex 1.9999999999999998 0.0 3.9999999999999996
    vertex 0.9999999999999999 10.0 3.9999999999999996
    vertex 0.9999999999999999 0.0 3.9999999999999996
  endloop
endfacet
facet normal 0.0 0.0 1.0
  outer loop
    vertex 0.9999999999999999 10.0 3.9999999999999996
    vertex 1.9999999999999998 0.0 3.9999999999999996
    vertex 1.999999999999998 10.0 3.9999999999999996
  endloop
endfacet
facet normal 1.0 1.762479051592436e-16 0.0
  outer loop
    vertex 1.999999999999998 10.0 0.9999999999999999
    vertex 1.9999999999999998 0.0 3.9999999999999996
    vertex 1.9999999999999998 0.0 0.9999999999999999
  endloop
endfacet
facet normal 1.0 1.762479051592436e-16 0.0
  outer loop
    vertex 1.9999999999999998 0.0 3.9999999999999996
    vertex 1.999999999999998 10.0 0.9999999999999999
    vertex 1.999999999999998 10.0 3.9999999999999996
  endloop
endfacet
facet normal 0.0 0.0 1.0
  outer loop
    vertex 3.0 0.0 3.9999999999999996
    vertex 4.000000000000012 10.000000000000002 3.9999999999999996
    vertex 2.9999999999999973 10.0 3.9999999999999996
  endloop
endfacet
facet normal 0.0 0.0 1.0
  outer loop
    vertex 4.000000000000012 10.000000000000002 3.9999999999999996
    vertex 3.0 0.0 3.9999999999999996
    vertex 3.9999999999999996 1.2689849171465537e-15 3.9999999999999996
  endloop
endfacet
facet normal 1.0 -1.2689849171465539e-15 0.0
  outer loop
    vertex 4.000000000000012 10.000000000000002 0.9999999999999999
    vertex 3.9999999999999996 1.2689849171465537e-15 3.9999999999999996
    vertex 3.9999999999999996 1.2689849171465537e-15 0.9999999999999999
  endloop
endfacet
facet normal 1.0 -1.2689849171465539e-15 0.0
  outer loop
    vertex 3.9999999999999996 1.2689849171465537e-15 3.9999999999999996
    vertex 4.000000000000012 10.000000000000002 0.9999999999999999
    vertex 4.000000000000012 10.000000000000002 3.9999999999999996
  endloop
endfacet
facet normal -1.0 -2.4674706722294106e-16 -0.0
  outer loop
    vertex 2.9999999999999973 10.0 3.9999999999999996
    vertex 3.0 0.0 0.9999999999999999
    vertex 3.0 0.0 3.9999999999999996
  endloop
endfacet
facet normal -1.0 -2.4674706722294106e-16 -0.0
  outer loop
    vertex 3.0 0.0 0.9999999999999999
    vertex 2.9999999999999973 10.0 3.9999999999999996
    vertex 2.9999999999999973 10.0 0.9999999999999999
  endloop
endfacet
facet normal 0.0 0.0 1.0
  outer loop
    vertex 6.249999999999999 -3.1724622928663847e-16 3.9891
    vertex 5.250000000000011 10.0 3.9891
    vertex 5.250000000000011 0.0 3.9891
  endloop
endfacet
facet normal 0.0 0.0 1.0
  outer loop
    vertex 5.250000000000011 10.0 3.9891
    vertex 6.249999999999999 -3.1724622928663847e-16 3.9891
    vertex 6.2499999999999964 10.0 3.9891
  endloop
endfacet
facet normal 1.0 1.4099832412739488e-16 0.0
  outer loop
    vertex 6.2499999999999964 10.0 0.9999999999999999
    vertex 6.249999999999999 -3.1724622928663847e-16 3.9891
    vertex 6.249999999999999 -3.1724622928663847e-16 0.9999999999999999
  endloop
endfacet
facet normal 1.0 1.4099832412739488e-16 0.0
  outer loop
    vertex 6.249999999999999 -3.1724622928663847e-16 3.9891
    vertex 6.2499999999999964 10.0 0.9999999999999999
    vertex 6.2499999999999964 10.0 3.9891
  endloop
endfacet
facet normal -1.0 -0.0 -0.0
  outer loop
    vertex 5.250000000000011 10.0 3.9891
    vertex 5.250000000000011 0.0 0.9999999999999999
    vertex 5.250000000000011 0.0 3.9891
  endloop
endfacet
facet normal -1.0 -0.0 -0.0
  outer loop
    vertex 5.250000000000011 0.0 0.9999999999999999
    vertex 5.250000000000011 10.0 3.9891
    vertex 5.250000000000011 10.0 0.9999999999999999
  endloop
endfacet
facet normal -3.52495810318487e-17 2.6437185773886547e-17 1.0
  outer loop
    vertex 10.5 1.2689849171465572e-15 0.9999999999999998
    vertex 8.73790000000001 10.0 0.9999999999999992
    vertex 8.73790000000001 0.0 0.9999999999999996
  endloop
endfacet
facet normal -3.52495810318487e-17 2.6437185773886547e-17 1.0
  outer loop
    vertex 8.73790000000001 10.0 0.9999999999999992
    vertex 10.5 1.2689849171465572e-15 0.9999999999999998
    vertex 10.500000000000004 10.000000000000002 0.9999999999999996
  endloop
endfacet
facet normal 0.0 3.5249581031848714e-17 1.0
  outer loop
    vertex 8.73790000000001 1.0536452266229907e-16 3.9891000000000014
    vertex 7.75 10.0 3.9891000000000014
    vertex 7.75 1.0536452266229907e-16 3.9891000000000014
  endloop
endfacet
facet normal 0.0 3.5249581031848714e-17 1.0
  outer loop
    vertex 7.75 10.0 3.9891000000000014
    vertex 8.73790000000001 1.0536452266229907e-16 3.9891000000000014
    vertex 8.73790000000001 10.0 3.9891000000000014
  endloop
endfacet
facet normal 1.0 0.0 0.0
  outer loop
    vertex 8.73790000000001 10.0 0.9999999999999992
    vertex 8.73790000000001 1.0536452266229907e-16 3.9891000000000014
    vertex 8.73790000000001 0.0 0.9999999999999996
  endloop
endfacet
facet normal 1.0 0.0 0.0
  outer loop
    vertex 8.73790000000001 1.0536452266229907e-16 3.9891000000000014
    vertex 8.73790000000001 10.0 0.9999999999999992
    vertex 8.73790000000001 10.0 3.9891000000000014
  endloop
endfacet
facet normal -1.0 0.0 0.0
  outer loop
    vertex 7.75 1.0536452266229907e-16 3.9891000000000014
    vertex 7.75 10.0 0.9999999999999992
    vertex 7.75 0.0 0.9999999999999996
  endloop
endfacet
facet normal -1.0 0.0 0.0
  outer loop
    vertex 7.75 10.0 0.9999999999999992
    vertex 7.75 1.0536452266229907e-16 3.9891000000000014
    vertex 7.75 10.0 3.9891000000000014
  endloop
endfacet
facet normal 4.406197628981091e-17 2.6437185773886528e-17 1.0
  outer loop
    vertex 11.50000000000001 5.96017247130506e-16 3.989100000000017
    vertex 10.500000000000004 10.000000000000002 3.9891000000000028
    vertex 10.5 1.3480083091432816e-15 3.9891000000000028
  endloop
endfacet
facet normal 4.406197628981091e-17 2.6437185773886528e-17 1.0
  outer loop
    vertex 10.500000000000004 10.000000000000002 3.9891000000000028
    vertex 11.50000000000001 5.96017247130506e-16 3.989100000000017
    vertex 11.500000000000016 10.0 3.989100000000016
  endloop
endfacet
facet normal 1.0 -4.229949723821848e-16 -3.3019580104103517e-15
  outer loop
    vertex 11.500000000000004 10.0 0.9999999999999989
    vertex 11.50000000000001 5.96017247130506e-16 3.989100000000017
    vertex 11.500000000000002 4.446497476188074e-16 0.9999999999999989
  endloop
endfacet
facet normal 1.0 -4.229949723821848e-16 -3.3019580104103517e-15
  outer loop
    vertex 11.50000000000001 5.96017247130506e-16 3.989100000000017
    vertex 11.500000000000004 10.0 0.9999999999999989
    vertex 11.500000000000016 10.0 3.989100000000016
  endloop
endfacet
facet normal -1.0 2.8199664825478977e-16 4.406197628981091e-17
  outer loop
    vertex 10.5 1.3480083091432816e-15 3.9891000000000028
    vertex 10.500000000000004 10.000000000000002 0.9999999999999996
    vertex 10.5 1.2689849171465572e-15 0.9999999999999998
  endloop
endfacet
facet normal -1.0 2.8199664825478977e-16 4.406197628981091e-17
  outer loop
    vertex 10.500000000000004 10.000000000000002 0.9999999999999996
    vertex 10.5 1.3480083091432816e-15 3.9891000000000028
    vertex 10.500000000000004 10.000000000000002 3.9891000000000028
  endloop
endfacet
facet normal 1.0 -1.4099832412739488e-16 1.409983241273971e-15
  outer loop
    vertex 14.499999999999998 9.39988827515981e-17 1.8885334875764e-14
    vertex 14.499999999999993 10.0 3.989100000000029
    vertex 14.499999999999988 4.7995905902201015e-17 3.989100000000029
  endloop
endfacet
facet normal 1.0 -1.4099832412739488e-16 1.409983241273971e-15
  outer loop
    vertex 14.499999999999993 10.0 3.989100000000029
    vertex 14.499999999999998 9.39988827515981e-17 1.8885334875764e-14
    vertex 14.499999999999998 10.0 1.8885334875764e-14
  endloop
endfacet
facet normal -6.609296443471651e-16 8.812395257962274e-18 1.0
  outer loop
    vertex 13.499999999999998 8.132654968200901e-17 1.0000000000000002
    vertex 11.500000000000004 10.0 0.9999999999999989
    vertex 11.500000000000002 4.446497476188074e-16 0.9999999999999989
  endloop
endfacet
facet normal -6.609296443471651e-16 8.812395257962274e-18 1.0
  outer loop
    vertex 11.500000000000004 10.0 0.9999999999999989
    vertex 13.499999999999998 8.132654968200901e-17 1.0000000000000002
    vertex 13.499999999999998 9.999999999999998 1.0
  endloop
endfacet
facet normal -2.731842529968281e-15 8.81239525796295e-18 1.0
  outer loop
    vertex 14.499999999999988 4.7995905902201015e-17 3.989100000000029
    vertex 13.499999999999993 9.999999999999998 3.9891000000000263
    vertex 13.499999999999993 1.0766768034758628e-16 3.9891000000000263
  endloop
endfacet
facet normal -2.731842529968281e-15 8.81239525796295e-18 1.0
  outer loop
    vertex 13.499999999999993 9.999999999999998 3.9891000000000263
    vertex 14.499999999999988 4.7995905902201015e-17 3.989100000000029
    vertex 14.499999999999993 10.0 3.989100000000029
  endloop
endfacet
facet normal -0.9999999999999999 -4.8148152313183767e-32 -2.731842529968281e-15
  outer loop
    vertex 13.499999999999993 1.0766768034758628e-16 3.9891000000000263
    vertex 13.499999999999998 9.999999999999998 1.0
    vertex 13.499999999999998 8.132654968200901e-17 1.0000000000000002
  endloop
endfacet
facet normal -0.9999999999999999 -4.8148152313183767e-32 -2.731842529968281e-15
  outer loop
    vertex 13.499999999999998 9.999999999999998 1.0
    vertex 13.499999999999993 1.0766768034758628e-16 3.9891000000000263
    vertex 13.499999999999993 9.999999999999998 3.9891000000000263
  endloop
endfacet
endsolid wire test 2a
