solid OpenSCAD_Model
  facet normal -1 0 0
    outer loop
      vertex -5.5 -7.5 -6.5
      vertex -5.5 -7.5 6.5
      vertex -5.5 7.5 -6.5
    endloop
  endfacet
  facet normal -1 0 0
    outer loop
      vertex -5.5 7.5 -6.5
      vertex -5.5 -7.5 6.5
      vertex -5.5 7.5 6.5
    endloop
  endfacet
  facet normal 0 -1 0
    outer loop
      vertex 29 -7.5 -2.5
      vertex -5.5 -7.5 -6.5
      vertex 47.5 -7.5 -6.5
    endloop
  endfacet
  facet normal 0 -1 0
    outer loop
      vertex -0.5 -7.5 -2.5
      vertex -0.5 -7.5 6.5
      vertex -5.5 -7.5 6.5
    endloop
  endfacet
  facet normal 0 -1 0
    outer loop
      vertex 47.5 -7.5 6.5
      vertex 42.5 -7.5 6.5
      vertex 47.5 -7.5 -6.5
    endloop
  endfacet
  facet normal 0 -1 0
    outer loop
      vertex 42.5 -7.5 6.5
      vertex 42.5 -7.5 -2.5
      vertex 47.5 -7.5 -6.5
    endloop
  endfacet
  facet normal 0 -1 0
    outer loop
      vertex 37.5 -7.5 -2.5
      vertex 29 -7.5 -2.5
      vertex 47.5 -7.5 -6.5
    endloop
  endfacet
  facet normal 0 -1 0
    outer loop
      vertex 42.5 -7.5 -2.5
      vertex 37.5 -7.5 -2.5
      vertex 47.5 -7.5 -6.5
    endloop
  endfacet
  facet normal 0 -1 0
    outer loop
      vertex 29 -7.5 6.5
      vertex 29 -7.5 -2.5
      vertex 37.5 -7.5 -2.5
    endloop
  endfacet
  facet normal 0 -1 0
    outer loop
      vertex 17.5 -7.5 6.5
      vertex 17.5 -7.5 -2.5
      vertex 25 -7.5 -2.5
    endloop
  endfacet
  facet normal 0 -1 0
    outer loop
      vertex 25 -7.5 -2.5
      vertex -5.5 -7.5 -6.5
      vertex 29 -7.5 -2.5
    endloop
  endfacet
  facet normal 0 -1 0
    outer loop
      vertex 17.5 -7.5 -2.5
      vertex -5.5 -7.5 -6.5
      vertex 25 -7.5 -2.5
    endloop
  endfacet
  facet normal 0 -1 0
    outer loop
      vertex 0.5 -7.5 6.5
      vertex 0.5 -7.5 -2.5
      vertex 6 -7.5 -2.5
    endloop
  endfacet
  facet normal 0 -1 0
    outer loop
      vertex 14.5 -7.5 -2.5
      vertex -5.5 -7.5 -6.5
      vertex 17.5 -7.5 -2.5
    endloop
  endfacet
  facet normal 0 -1 0
    outer loop
      vertex 8 -7.5 -2.5
      vertex -5.5 -7.5 -6.5
      vertex 14.5 -7.5 -2.5
    endloop
  endfacet
  facet normal 0 -1 0
    outer loop
      vertex 6 -7.5 -2.5
      vertex -5.5 -7.5 -6.5
      vertex 8 -7.5 -2.5
    endloop
  endfacet
  facet normal 0 -1 0
    outer loop
      vertex 0.5 -7.5 -2.5
      vertex -5.5 -7.5 -6.5
      vertex 6 -7.5 -2.5
    endloop
  endfacet
  facet normal 0 -1 0
    outer loop
      vertex 8 -7.5 6.5
      vertex 8 -7.5 -2.5
      vertex 14.5 -7.5 -2.5
    endloop
  endfacet
  facet normal 0 -1 0
    outer loop
      vertex -0.5 -7.5 -2.5
      vertex -5.5 -7.5 -6.5
      vertex 0.5 -7.5 -2.5
    endloop
  endfacet
  facet normal 0 -1 0
    outer loop
      vertex -5.5 -7.5 6.5
      vertex -5.5 -7.5 -6.5
      vertex -0.5 -7.5 -2.5
    endloop
  endfacet
  facet normal 0 -1 0
    outer loop
      vertex 6 -7.5 -2.5
      vertex 6 -7.5 6.5
      vertex 0.5 -7.5 6.5
    endloop
  endfacet
  facet normal 0 -1 0
    outer loop
      vertex 14.5 -7.5 -2.5
      vertex 14.5 -7.5 6.5
      vertex 8 -7.5 6.5
    endloop
  endfacet
  facet normal 0 -1 0
    outer loop
      vertex 25 -7.5 -2.5
      vertex 25 -7.5 6.5
      vertex 17.5 -7.5 6.5
    endloop
  endfacet
  facet normal 0 -1 0
    outer loop
      vertex 37.5 -7.5 -2.5
      vertex 37.5 -7.5 6.5
      vertex 29 -7.5 6.5
    endloop
  endfacet
  facet normal 0 0 -1
    outer loop
      vertex -5.5 -7.5 -6.5
      vertex -5.5 7.5 -6.5
      vertex 47.5 -7.5 -6.5
    endloop
  endfacet
  facet normal 0 0 -1
    outer loop
      vertex 47.5 -7.5 -6.5
      vertex -5.5 7.5 -6.5
      vertex 47.5 7.5 -6.5
    endloop
  endfacet
  facet normal 0 1 0
    outer loop
      vertex -5.5 7.5 -6.5
      vertex -5.5 7.5 6.5
      vertex -0.5 7.5 -2.5
    endloop
  endfacet
  facet normal 0 1 0
    outer loop
      vertex -5.5 7.5 -6.5
      vertex -0.5 7.5 -2.5
      vertex 47.5 7.5 -6.5
    endloop
  endfacet
  facet normal 0 1 0
    outer loop
      vertex -0.5 7.5 -2.5
      vertex 0.5 7.5 -2.5
      vertex 47.5 7.5 -6.5
    endloop
  endfacet
  facet normal 0 1 0
    outer loop
      vertex 6 7.5 -2.5
      vertex 0.5 7.5 6.5
      vertex 6 7.5 6.5
    endloop
  endfacet
  facet normal 0 1 0
    outer loop
      vertex 8 7.5 6.5
      vertex 14.5 7.5 -2.5
      vertex 8 7.5 -2.5
    endloop
  endfacet
  facet normal 0 1 0
    outer loop
      vertex 0.5 7.5 -2.5
      vertex 6 7.5 -2.5
      vertex 47.5 7.5 -6.5
    endloop
  endfacet
  facet normal 0 1 0
    outer loop
      vertex 37.5 7.5 -2.5
      vertex 47.5 7.5 -6.5
      vertex 29 7.5 -2.5
    endloop
  endfacet
  facet normal 0 1 0
    outer loop
      vertex 6 7.5 -2.5
      vertex 8 7.5 -2.5
      vertex 47.5 7.5 -6.5
    endloop
  endfacet
  facet normal 0 1 0
    outer loop
      vertex 14.5 7.5 -2.5
      vertex 8 7.5 6.5
      vertex 14.5 7.5 6.5
    endloop
  endfacet
  facet normal 0 1 0
    outer loop
      vertex 29 7.5 6.5
      vertex 37.5 7.5 -2.5
      vertex 29 7.5 -2.5
    endloop
  endfacet
  facet normal 0 1 0
    outer loop
      vertex 8 7.5 -2.5
      vertex 14.5 7.5 -2.5
      vertex 47.5 7.5 -6.5
    endloop
  endfacet
  facet normal 0 1 0
    outer loop
      vertex 42.5 7.5 6.5
      vertex 47.5 7.5 -6.5
      vertex 42.5 7.5 -2.5
    endloop
  endfacet
  facet normal 0 1 0
    outer loop
      vertex 14.5 7.5 -2.5
      vertex 17.5 7.5 -2.5
      vertex 47.5 7.5 -6.5
    endloop
  endfacet
  facet normal 0 1 0
    outer loop
      vertex 25 7.5 -2.5
      vertex 17.5 7.5 6.5
      vertex 25 7.5 6.5
    endloop
  endfacet
  facet normal 0 1 0
    outer loop
      vertex 17.5 7.5 6.5
      vertex 25 7.5 -2.5
      vertex 17.5 7.5 -2.5
    endloop
  endfacet
  facet normal 0 1 0
    outer loop
      vertex 17.5 7.5 -2.5
      vertex 25 7.5 -2.5
      vertex 47.5 7.5 -6.5
    endloop
  endfacet
  facet normal 0 1 0
    outer loop
      vertex 0.5 7.5 6.5
      vertex 6 7.5 -2.5
      vertex 0.5 7.5 -2.5
    endloop
  endfacet
  facet normal 0 1 0
    outer loop
      vertex 25 7.5 -2.5
      vertex 29 7.5 -2.5
      vertex 47.5 7.5 -6.5
    endloop
  endfacet
  facet normal 0 1 0
    outer loop
      vertex 37.5 7.5 -2.5
      vertex 29 7.5 6.5
      vertex 37.5 7.5 6.5
    endloop
  endfacet
  facet normal 0 1 0
    outer loop
      vertex 42.5 7.5 -2.5
      vertex 47.5 7.5 -6.5
      vertex 37.5 7.5 -2.5
    endloop
  endfacet
  facet normal 0 1 0
    outer loop
      vertex 47.5 7.5 -6.5
      vertex 42.5 7.5 6.5
      vertex 47.5 7.5 6.5
    endloop
  endfacet
  facet normal 0 1 0
    outer loop
      vertex -0.5 7.5 -2.5
      vertex -5.5 7.5 6.5
      vertex -0.5 7.5 6.5
    endloop
  endfacet
  facet normal 0 0 1
    outer loop
      vertex -5.5 7.5 6.5
      vertex -5.5 -7.5 6.5
      vertex -0.5 -7.5 6.5
    endloop
  endfacet
  facet normal 0 0 1
    outer loop
      vertex -0.5 7.5 6.5
      vertex -5.5 7.5 6.5
      vertex -0.5 -7.5 6.5
    endloop
  endfacet
  facet normal 1 0 0
    outer loop
      vertex -0.5 7.5 -2.5
      vertex -0.5 7.5 6.5
      vertex -0.5 -7.5 6.5
    endloop
  endfacet
  facet normal 1 0 0
    outer loop
      vertex -0.5 -7.5 -2.5
      vertex -0.5 7.5 -2.5
      vertex -0.5 -7.5 6.5
    endloop
  endfacet
  facet normal 0 0 1
    outer loop
      vertex 0.5 -7.5 -2.5
      vertex 0.5 7.5 -2.5
      vertex -0.5 7.5 -2.5
    endloop
  endfacet
  facet normal 0 0 1
    outer loop
      vertex -0.5 -7.5 -2.5
      vertex 0.5 -7.5 -2.5
      vertex -0.5 7.5 -2.5
    endloop
  endfacet
  facet normal -1 0 0
    outer loop
      vertex 0.5 7.5 6.5
      vertex 0.5 7.5 -2.5
      vertex 0.5 -7.5 6.5
    endloop
  endfacet
  facet normal -1 0 0
    outer loop
      vertex 0.5 -7.5 6.5
      vertex 0.5 7.5 -2.5
      vertex 0.5 -7.5 -2.5
    endloop
  endfacet
  facet normal 0 0 1
    outer loop
      vertex 0.5 7.5 6.5
      vertex 0.5 -7.5 6.5
      vertex 6 -7.5 6.5
    endloop
  endfacet
  facet normal 0 0 1
    outer loop
      vertex 6 7.5 6.5
      vertex 0.5 7.5 6.5
      vertex 6 -7.5 6.5
    endloop
  endfacet
  facet normal 1 0 0
    outer loop
      vertex 6 7.5 -2.5
      vertex 6 7.5 6.5
      vertex 6 -7.5 6.5
    endloop
  endfacet
  facet normal 1 0 0
    outer loop
      vertex 6 -7.5 -2.5
      vertex 6 7.5 -2.5
      vertex 6 -7.5 6.5
    endloop
  endfacet
  facet normal 0 0 1
    outer loop
      vertex 8 -7.5 -2.5
      vertex 8 7.5 -2.5
      vertex 6 7.5 -2.5
    endloop
  endfacet
  facet normal 0 0 1
    outer loop
      vertex 6 -7.5 -2.5
      vertex 8 -7.5 -2.5
      vertex 6 7.5 -2.5
    endloop
  endfacet
  facet normal -1 0 0
    outer loop
      vertex 8 7.5 6.5
      vertex 8 7.5 -2.5
      vertex 8 -7.5 6.5
    endloop
  endfacet
  facet normal -1 0 0
    outer loop
      vertex 8 -7.5 6.5
      vertex 8 7.5 -2.5
      vertex 8 -7.5 -2.5
    endloop
  endfacet
  facet normal 0 0 1
    outer loop
      vertex 8 7.5 6.5
      vertex 8 -7.5 6.5
      vertex 14.5 -7.5 6.5
    endloop
  endfacet
  facet normal 0 0 1
    outer loop
      vertex 14.5 7.5 6.5
      vertex 8 7.5 6.5
      vertex 14.5 -7.5 6.5
    endloop
  endfacet
  facet normal 1 0 0
    outer loop
      vertex 14.5 7.5 -2.5
      vertex 14.5 7.5 6.5
      vertex 14.5 -7.5 6.5
    endloop
  endfacet
  facet normal 1 0 0
    outer loop
      vertex 14.5 -7.5 -2.5
      vertex 14.5 7.5 -2.5
      vertex 14.5 -7.5 6.5
    endloop
  endfacet
  facet normal 0 0 1
    outer loop
      vertex 17.5 -7.5 -2.5
      vertex 17.5 7.5 -2.5
      vertex 14.5 7.5 -2.5
    endloop
  endfacet
  facet normal 0 0 1
    outer loop
      vertex 14.5 -7.5 -2.5
      vertex 17.5 -7.5 -2.5
      vertex 14.5 7.5 -2.5
    endloop
  endfacet
  facet normal -1 0 0
    outer loop
      vertex 17.5 7.5 6.5
      vertex 17.5 7.5 -2.5
      vertex 17.5 -7.5 6.5
    endloop
  endfacet
  facet normal -1 0 0
    outer loop
      vertex 17.5 -7.5 6.5
      vertex 17.5 7.5 -2.5
      vertex 17.5 -7.5 -2.5
    endloop
  endfacet
  facet normal 0 0 1
    outer loop
      vertex 17.5 7.5 6.5
      vertex 17.5 -7.5 6.5
      vertex 25 -7.5 6.5
    endloop
  endfacet
  facet normal 0 0 1
    outer loop
      vertex 25 7.5 6.5
      vertex 17.5 7.5 6.5
      vertex 25 -7.5 6.5
    endloop
  endfacet
  facet normal 1 0 0
    outer loop
      vertex 25 7.5 -2.5
      vertex 25 7.5 6.5
      vertex 25 -7.5 6.5
    endloop
  endfacet
  facet normal 1 0 0
    outer loop
      vertex 25 -7.5 -2.5
      vertex 25 7.5 -2.5
      vertex 25 -7.5 6.5
    endloop
  endfacet
  facet normal 0 0 1
    outer loop
      vertex 29 -7.5 -2.5
      vertex 29 7.5 -2.5
      vertex 25 7.5 -2.5
    endloop
  endfacet
  facet normal 0 0 1
    outer loop
      vertex 25 -7.5 -2.5
      vertex 29 -7.5 -2.5
      vertex 25 7.5 -2.5
    endloop
  endfacet
  facet normal -1 0 0
    outer loop
      vertex 29 7.5 6.5
      vertex 29 7.5 -2.5
      vertex 29 -7.5 6.5
    endloop
  endfacet
  facet normal -1 0 0
    outer loop
      vertex 29 -7.5 6.5
      vertex 29 7.5 -2.5
      vertex 29 -7.5 -2.5
    endloop
  endfacet
  facet normal 0 0 1
    outer loop
      vertex 29 7.5 6.5
      vertex 29 -7.5 6.5
      vertex 37.5 -7.5 6.5
    endloop
  endfacet
  facet normal 0 0 1
    outer loop
      vertex 37.5 7.5 6.5
      vertex 29 7.5 6.5
      vertex 37.5 -7.5 6.5
    endloop
  endfacet
  facet normal 1 0 0
    outer loop
      vertex 37.5 7.5 -2.5
      vertex 37.5 7.5 6.5
      vertex 37.5 -7.5 6.5
    endloop
  endfacet
  facet normal 1 0 0
    outer loop
      vertex 37.5 -7.5 -2.5
      vertex 37.5 7.5 -2.5
      vertex 37.5 -7.5 6.5
    endloop
  endfacet
  facet normal 0 0 1
    outer loop
      vertex 42.5 -7.5 -2.5
      vertex 42.5 7.5 -2.5
      vertex 37.5 7.5 -2.5
    endloop
  endfacet
  facet normal 0 0 1
    outer loop
      vertex 37.5 -7.5 -2.5
      vertex 42.5 -7.5 -2.5
      vertex 37.5 7.5 -2.5
    endloop
  endfacet
  facet normal -1 0 0
    outer loop
      vertex 42.5 7.5 6.5
      vertex 42.5 7.5 -2.5
      vertex 42.5 -7.5 6.5
    endloop
  endfacet
  facet normal -1 0 0
    outer loop
      vertex 42.5 -7.5 6.5
      vertex 42.5 7.5 -2.5
      vertex 42.5 -7.5 -2.5
    endloop
  endfacet
  facet normal 0 0 1
    outer loop
      vertex 42.5 7.5 6.5
      vertex 42.5 -7.5 6.5
      vertex 47.5 -7.5 6.5
    endloop
  endfacet
  facet normal 0 0 1
    outer loop
      vertex 47.5 7.5 6.5
      vertex 42.5 7.5 6.5
      vertex 47.5 -7.5 6.5
    endloop
  endfacet
  facet normal 1 0 0
    outer loop
      vertex 47.5 -7.5 6.5
      vertex 47.5 -7.5 -6.5
      vertex 47.5 7.5 -6.5
    endloop
  endfacet
  facet normal 1 0 0
    outer loop
      vertex 47.5 7.5 6.5
      vertex 47.5 -7.5 6.5
      vertex 47.5 7.5 -6.5
    endloop
  endfacet
endsolid OpenSCAD_Model
