solid Untitled-543d3f88
facet normal 0.0 0.0 -1.0
  outer loop
    vertex 13.000000000000004 10.0 1.0658461928685155e-14
    vertex 0.9999999999999999 0.0 0.0
    vertex 0.9999999999999999 10.0 0.0
  endloop
endfacet
facet normal 0.0 0.0 -1.0
  outer loop
    vertex 0.9999999999999999 0.0 0.0
    vertex 13.000000000000004 10.0 1.0658461928685155e-14
    vertex 13.000000000000004 3.7599553100638655e-16 1.0658461928685155e-14
  endloop
endfacet
facet normal 3.01895126355429e-18 -1.0 1.1967874312165153e-17
  outer loop
    vertex 13.000000000000004 3.7599553100638655e-16 1.0658461928685155e-14
    vertex 12.000000000000012 8.459899447643694e-16 0.9999999999999998
    vertex 9.50000000000001 0.0 0.9999999999999996
  endloop
endfacet
facet normal 3.01895126355429e-18 -1.0 1.1967874312165153e-17
  outer loop
    vertex 12.000000000000012 8.459899447643694e-16 0.9999999999999998
    vertex 13.000000000000004 3.7599553100638655e-16 1.0658461928685155e-14
    vertex 13.00000000000001 4.550189230031109e-16 3.9891000000000134
  endloop
endfacet
facet normal 3.01895126355429e-18 -1.0 1.1967874312165153e-17
  outer loop
    vertex 12.000000000000012 8.459899447643694e-16 0.9999999999999998
    vertex 13.00000000000001 4.550189230031109e-16 3.9891000000000134
    vertex 12.000000000000012 9.250133367610935e-16 3.9891000000000028
  endloop
endfacet
facet normal 3.01895126355429e-18 -1.0 1.1967874312165153e-17
  outer loop
    vertex 9.50000000000001 1.0536452266229907e-16 3.9891000000000014
    vertex 8.500000000000012 0.0 0.9999999999999996
    vertex 9.50000000000001 0.0 0.9999999999999996
  endloop
endfacet
facet normal 3.01895126355429e-18 -1.0 1.1967874312165153e-17
  outer loop
    vertex 8.500000000000012 0.0 0.9999999999999996
    vertex 9.50000000000001 1.0536452266229907e-16 3.9891000000000014
    vertex 8.500000000000012 1.0536452266229907e-16 3.9891000000000014
  endloop
endfacet
facet normal 3.01895126355429e-18 -1.0 1.1967874312165153e-17
  outer loop
    vertex 6.499999999999999 -2.8199664825478977e-16 3.9891
    vertex 5.500000000000011 0.0 0.9999999999999999
    vertex 6.499999999999999 -2.8199664825478977e-16 0.9999999999999999
  endloop
endfacet
facet normal 3.01895126355429e-18 -1.0 1.1967874312165153e-17
  outer loop
    vertex 5.500000000000011 0.0 0.9999999999999999
    vertex 6.499999999999999 -2.8199664825478977e-16 3.9891
    vertex 5.500000000000011 0.0 3.9891
  endloop
endfacet
facet normal 3.01895126355429e-18 -1.0 1.1967874312165153e-17
  outer loop
    vertex 3.9999999999999996 1.2689849171465537e-15 3.9999999999999996
    vertex 3.0 0.0 0.9999999999999999
    vertex 3.9999999999999996 1.2689849171465537e-15 0.9999999999999999
  endloop
endfacet
facet normal 3.01895126355429e-18 -1.0 1.1967874312165153e-17
  outer loop
    vertex 3.0 0.0 0.9999999999999999
    vertex 3.9999999999999996 1.2689849171465537e-15 3.9999999999999996
    vertex 3.0 0.0 3.9999999999999996
  endloop
endfacet
facet normal 3.01895126355429e-18 -1.0 1.1967874312165153e-17
  outer loop
    vertex 0.9999999999999999 0.0 0.0
    vertex 1.9999999999999998 0.0 0.9999999999999999
    vertex 0.9999999999999999 0.0 3.9999999999999996
  endloop
endfacet
facet normal 3.01895126355429e-18 -1.0 1.1967874312165153e-17
  outer loop
    vertex 1.9999999999999998 0.0 0.9999999999999999
    vertex 0.9999999999999999 0.0 0.0
    vertex 13.000000000000004 3.7599553100638655e-16 1.0658461928685155e-14
  endloop
endfacet
facet normal 3.01895126355429e-18 -1.0 1.1967874312165153e-17
  outer loop
    vertex 1.9999999999999998 0.0 0.9999999999999999
    vertex 13.000000000000004 3.7599553100638655e-16 1.0658461928685155e-14
    vertex 8.500000000000012 0.0 0.9999999999999996
  endloop
endfacet
facet normal 3.01895126355429e-18 -1.0 1.1967874312165153e-17
  outer loop
    vertex 8.500000000000012 0.0 0.9999999999999996
    vertex 13.000000000000004 3.7599553100638655e-16 1.0658461928685155e-14
    vertex 9.50000000000001 0.0 0.9999999999999996
  endloop
endfacet
facet normal 3.01895126355429e-18 -1.0 1.1967874312165153e-17
  outer loop
    vertex 1.9999999999999998 0.0 0.9999999999999999
    vertex 8.500000000000012 0.0 0.9999999999999996
    vertex 6.499999999999999 -2.8199664825478977e-16 0.9999999999999999
  endloop
endfacet
facet normal 3.01895126355429e-18 -1.0 1.1967874312165153e-17
  outer loop
    vertex 1.9999999999999998 0.0 0.9999999999999999
    vertex 6.499999999999999 -2.8199664825478977e-16 0.9999999999999999
    vertex 5.500000000000011 0.0 0.9999999999999999
  endloop
endfacet
facet normal 3.01895126355429e-18 -1.0 1.1967874312165153e-17
  outer loop
    vertex 1.9999999999999998 0.0 0.9999999999999999
    vertex 5.500000000000011 0.0 0.9999999999999999
    vertex 3.9999999999999996 1.2689849171465537e-15 0.9999999999999999
  endloop
endfacet
facet normal 3.01895126355429e-18 -1.0 1.1967874312165153e-17
  outer loop
    vertex 1.9999999999999998 0.0 0.9999999999999999
    vertex 3.9999999999999996 1.2689849171465537e-15 0.9999999999999999
    vertex 3.0 0.0 0.9999999999999999
  endloop
endfacet
facet normal 3.01895126355429e-18 -1.0 1.1967874312165153e-17
  outer loop
    vertex 0.9999999999999999 0.0 3.9999999999999996
    vertex 1.9999999999999998 0.0 0.9999999999999999
    vertex 1.9999999999999998 0.0 3.9999999999999996
  endloop
endfacet
facet normal -1.0 0.0 0.0
  outer loop
    vertex 0.9999999999999999 10.0 3.9999999999999996
    vertex 0.9999999999999999 0.0 0.0
    vertex 0.9999999999999999 0.0 3.9999999999999996
  endloop
endfacet
facet normal -1.0 0.0 0.0
  outer loop
    vertex 0.9999999999999999 0.0 0.0
    vertex 0.9999999999999999 10.0 3.9999999999999996
    vertex 0.9999999999999999 10.0 0.0
  endloop
endfacet
facet normal -0.0 1.0 -0.0
  outer loop
    vertex 0.9999999999999999 10.0 0.0
    vertex 1.999999999999998 10.0 0.9999999999999999
    vertex 13.000000000000004 10.0 1.0658461928685155e-14
  endloop
endfacet
facet normal -0.0 1.0 -0.0
  outer loop
    vertex 1.999999999999998 10.0 0.9999999999999999
    vertex 0.9999999999999999 10.0 0.0
    vertex 0.9999999999999999 10.0 3.9999999999999996
  endloop
endfacet
facet normal -0.0 1.0 -0.0
  outer loop
    vertex 13.000000000000004 10.0 1.0658461928685155e-14
    vertex 1.999999999999998 10.0 0.9999999999999999
    vertex 8.500000000000012 10.0 0.9999999999999992
  endloop
endfacet
facet normal -0.0 1.0 -0.0
  outer loop
    vertex 1.999999999999998 10.0 0.9999999999999999
    vertex 0.9999999999999999 10.0 3.9999999999999996
    vertex 1.999999999999998 10.0 3.9999999999999996
  endloop
endfacet
facet normal -0.0 1.0 -0.0
  outer loop
    vertex 2.9999999999999973 10.0 3.9999999999999996
    vertex 4.000000000000012 10.000000000000002 0.9999999999999999
    vertex 2.9999999999999973 10.0 0.9999999999999999
  endloop
endfacet
facet normal -0.0 1.0 -0.0
  outer loop
    vertex 4.000000000000012 10.000000000000002 0.9999999999999999
    vertex 2.9999999999999973 10.0 3.9999999999999996
    vertex 4.000000000000012 10.000000000000002 3.9999999999999996
  endloop
endfacet
facet normal -0.0 1.0 -0.0
  outer loop
    vertex 1.999999999999998 10.0 0.9999999999999999
    vertex 6.4999999999999964 10.0 0.9999999999999999
    vertex 8.500000000000012 10.0 0.9999999999999992
  endloop
endfacet
facet normal -0.0 1.0 -0.0
  outer loop
    vertex 6.4999999999999964 10.0 0.9999999999999999
    vertex 1.999999999999998 10.0 0.9999999999999999
    vertex 2.9999999999999973 10.0 0.9999999999999999
  endloop
endfacet
facet normal -0.0 1.0 -0.0
  outer loop
    vertex 6.4999999999999964 10.0 0.9999999999999999
    vertex 2.9999999999999973 10.0 0.9999999999999999
    vertex 4.000000000000012 10.000000000000002 0.9999999999999999
  endloop
endfacet
facet normal -0.0 1.0 -0.0
  outer loop
    vertex 6.4999999999999964 10.0 0.9999999999999999
    vertex 4.000000000000012 10.000000000000002 0.9999999999999999
    vertex 5.500000000000011 10.0 0.9999999999999999
  endloop
endfacet
facet normal -0.0 1.0 -0.0
  outer loop
    vertex 6.4999999999999964 10.0 0.9999999999999999
    vertex 5.500000000000011 10.0 0.9999999999999999
    vertex 5.500000000000011 10.0 3.9891
  endloop
endfacet
facet normal -0.0 1.0 -0.0
  outer loop
    vertex 6.4999999999999964 10.0 0.9999999999999999
    vertex 5.500000000000011 10.0 3.9891
    vertex 6.4999999999999964 10.0 3.9891
  endloop
endfacet
facet normal -0.0 1.0 -0.0
  outer loop
    vertex 8.500000000000012 10.0 3.9891000000000014
    vertex 9.50000000000001 10.0 0.9999999999999992
    vertex 8.500000000000012 10.0 0.9999999999999992
  endloop
endfacet
facet normal -0.0 1.0 -0.0
  outer loop
    vertex 9.50000000000001 10.0 0.9999999999999992
    vertex 8.500000000000012 10.0 3.9891000000000014
    vertex 9.50000000000001 10.0 3.9891000000000014
  endloop
endfacet
facet normal -0.0 1.0 -0.0
  outer loop
    vertex 13.000000000000004 10.0 1.0658461928685155e-14
    vertex 12.000000000000014 10.000000000000002 0.9999999999999996
    vertex 13.000000000000016 10.0 3.9891000000000125
  endloop
endfacet
facet normal -0.0 1.0 -0.0
  outer loop
    vertex 12.000000000000014 10.000000000000002 0.9999999999999996
    vertex 13.000000000000004 10.0 1.0658461928685155e-14
    vertex 9.50000000000001 10.0 0.9999999999999992
  endloop
endfacet
facet normal -0.0 1.0 -0.0
  outer loop
    vertex 9.50000000000001 10.0 0.9999999999999992
    vertex 13.000000000000004 10.0 1.0658461928685155e-14
    vertex 8.500000000000012 10.0 0.9999999999999992
  endloop
endfacet
facet normal -0.0 1.0 -0.0
  outer loop
    vertex 13.000000000000016 10.0 3.9891000000000125
    vertex 12.000000000000014 10.000000000000002 0.9999999999999996
    vertex 12.000000000000014 10.000000000000002 3.9891000000000028
  endloop
endfacet
facet normal -0.0 -0.0 1.0
  outer loop
    vertex 1.9999999999999998 0.0 0.9999999999999999
    vertex 2.9999999999999973 10.0 0.9999999999999999
    vertex 1.999999999999998 10.0 0.9999999999999999
  endloop
endfacet
facet normal -0.0 -0.0 1.0
  outer loop
    vertex 2.9999999999999973 10.0 0.9999999999999999
    vertex 1.9999999999999998 0.0 0.9999999999999999
    vertex 3.0 0.0 0.9999999999999999
  endloop
endfacet
facet normal -0.0 -0.0 1.0
  outer loop
    vertex 5.500000000000011 0.0 0.9999999999999999
    vertex 4.000000000000012 10.000000000000002 0.9999999999999999
    vertex 3.9999999999999996 1.2689849171465537e-15 0.9999999999999999
  endloop
endfacet
facet normal -0.0 -0.0 1.0
  outer loop
    vertex 4.000000000000012 10.000000000000002 0.9999999999999999
    vertex 5.500000000000011 0.0 0.9999999999999999
    vertex 5.500000000000011 10.0 0.9999999999999999
  endloop
endfacet
facet normal 2.6437185773886364e-16 1.762479051592438e-17 1.0
  outer loop
    vertex 6.499999999999999 -2.8199664825478977e-16 0.9999999999999999
    vertex 8.500000000000012 10.0 0.9999999999999992
    vertex 6.4999999999999964 10.0 0.9999999999999999
  endloop
endfacet
facet normal 2.6437185773886364e-16 1.762479051592438e-17 1.0
  outer loop
    vertex 8.500000000000012 10.0 0.9999999999999992
    vertex 6.499999999999999 -2.8199664825478977e-16 0.9999999999999999
    vertex 8.500000000000012 0.0 0.9999999999999996
  endloop
endfacet
facet normal 0.0 0.0 1.0
  outer loop
    vertex 1.9999999999999998 0.0 3.9999999999999996
    vertex 0.9999999999999999 10.0 3.9999999999999996
    vertex 0.9999999999999999 0.0 3.9999999999999996
  endloop
endfacet
facet normal 0.0 0.0 1.0
  outer loop
    vertex 0.9999999999999999 10.0 3.9999999999999996
    vertex 1.9999999999999998 0.0 3.9999999999999996
    vertex 1.999999999999998 10.0 3.9999999999999996
  endloop
endfacet
facet normal 1.0 1.762479051592436e-16 0.0
  outer loop
    vertex 1.999999999999998 10.0 0.9999999999999999
    vertex 1.9999999999999998 0.0 3.9999999999999996
    vertex 1.9999999999999998 0.0 0.9999999999999999
  endloop
endfacet
facet normal 1.0 1.762479051592436e-16 0.0
  outer loop
    vertex 1.9999999999999998 0.0 3.9999999999999996
    vertex 1.999999999999998 10.0 0.9999999999999999
    vertex 1.999999999999998 10.0 3.9999999999999996
  endloop
endfacet
facet normal 0.0 0.0 1.0
  outer loop
    vertex 3.0 0.0 3.9999999999999996
    vertex 4.000000000000012 10.000000000000002 3.9999999999999996
    vertex 2.9999999999999973 10.0 3.9999999999999996
  endloop
endfacet
facet normal 0.0 0.0 1.0
  outer loop
    vertex 4.000000000000012 10.000000000000002 3.9999999999999996
    vertex 3.0 0.0 3.9999999999999996
    vertex 3.9999999999999996 1.2689849171465537e-15 3.9999999999999996
  endloop
endfacet
facet normal 1.0 -1.2689849171465539e-15 0.0
  outer loop
    vertex 4.000000000000012 10.000000000000002 0.9999999999999999
    vertex 3.9999999999999996 1.2689849171465537e-15 3.9999999999999996
    vertex 3.9999999999999996 1.2689849171465537e-15 0.9999999999999999
  endloop
endfacet
facet normal 1.0 -1.2689849171465539e-15 0.0
  outer loop
    vertex 3.9999999999999996 1.2689849171465537e-15 3.9999999999999996
    vertex 4.000000000000012 10.000000000000002 0.9999999999999999
    vertex 4.000000000000012 10.000000000000002 3.9999999999999996
  endloop
endfacet
facet normal -1.0 -2.4674706722294106e-16 -0.0
  outer loop
    vertex 2.9999999999999973 10.0 3.9999999999999996
    vertex 3.0 0.0 0.9999999999999999
    vertex 3.0 0.0 3.9999999999999996
  endloop
endfacet
facet normal -1.0 -2.4674706722294106e-16 -0.0
  outer loop
    vertex 3.0 0.0 0.9999999999999999
    vertex 2.9999999999999973 10.0 3.9999999999999996
    vertex 2.9999999999999973 10.0 0.9999999999999999
  endloop
endfacet
facet normal 0.0 0.0 1.0
  outer loop
    vertex 6.499999999999999 -2.8199664825478977e-16 3.9891
    vertex 5.500000000000011 10.0 3.9891
    vertex 5.500000000000011 0.0 3.9891
  endloop
endfacet
facet normal 0.0 0.0 1.0
  outer loop
    vertex 5.500000000000011 10.0 3.9891
    vertex 6.499999999999999 -2.8199664825478977e-16 3.9891
    vertex 6.4999999999999964 10.0 3.9891
  endloop
endfacet
facet normal 1.0 1.4099832412739488e-16 0.0
  outer loop
    vertex 6.4999999999999964 10.0 0.9999999999999999
    vertex 6.499999999999999 -2.8199664825478977e-16 3.9891
    vertex 6.499999999999999 -2.8199664825478977e-16 0.9999999999999999
  endloop
endfacet
facet normal 1.0 1.4099832412739488e-16 0.0
  outer loop
    vertex 6.499999999999999 -2.8199664825478977e-16 3.9891
    vertex 6.4999999999999964 10.0 0.9999999999999999
    vertex 6.4999999999999964 10.0 3.9891
  endloop
endfacet
facet normal -1.0 -0.0 -0.0
  outer loop
    vertex 5.500000000000011 10.0 3.9891
    vertex 5.500000000000011 0.0 0.9999999999999999
    vertex 5.500000000000011 0.0 3.9891
  endloop
endfacet
facet normal -1.0 -0.0 -0.0
  outer loop
    vertex 5.500000000000011 0.0 0.9999999999999999
    vertex 5.500000000000011 10.0 3.9891
    vertex 5.500000000000011 10.0 0.9999999999999999
  endloop
endfacet
facet normal -3.52495810318487e-17 2.6437185773886547e-17 1.0
  outer loop
    vertex 12.000000000000012 8.459899447643694e-16 0.9999999999999998
    vertex 9.50000000000001 10.0 0.9999999999999992
    vertex 9.50000000000001 0.0 0.9999999999999996
  endloop
endfacet
facet normal -3.52495810318487e-17 2.6437185773886547e-17 1.0
  outer loop
    vertex 9.50000000000001 10.0 0.9999999999999992
    vertex 12.000000000000012 8.459899447643694e-16 0.9999999999999998
    vertex 12.000000000000014 10.000000000000002 0.9999999999999996
  endloop
endfacet
facet normal 0.0 3.5249581031848714e-17 1.0
  outer loop
    vertex 9.50000000000001 1.0536452266229907e-16 3.9891000000000014
    vertex 8.500000000000012 10.0 3.9891000000000014
    vertex 8.500000000000012 1.0536452266229907e-16 3.9891000000000014
  endloop
endfacet
facet normal 0.0 3.5249581031848714e-17 1.0
  outer loop
    vertex 8.500000000000012 10.0 3.9891000000000014
    vertex 9.50000000000001 1.0536452266229907e-16 3.9891000000000014
    vertex 9.50000000000001 10.0 3.9891000000000014
  endloop
endfacet
facet normal 1.0 0.0 0.0
  outer loop
    vertex 9.50000000000001 10.0 0.9999999999999992
    vertex 9.50000000000001 1.0536452266229907e-16 3.9891000000000014
    vertex 9.50000000000001 0.0 0.9999999999999996
  endloop
endfacet
facet normal 1.0 0.0 0.0
  outer loop
    vertex 9.50000000000001 1.0536452266229907e-16 3.9891000000000014
    vertex 9.50000000000001 10.0 0.9999999999999992
    vertex 9.50000000000001 10.0 3.9891000000000014
  endloop
endfacet
facet normal -1.0 0.0 0.0
  outer loop
    vertex 8.500000000000012 1.0536452266229907e-16 3.9891000000000014
    vertex 8.500000000000012 10.0 0.9999999999999992
    vertex 8.500000000000012 0.0 0.9999999999999996
  endloop
endfacet
facet normal -1.0 0.0 0.0
  outer loop
    vertex 8.500000000000012 10.0 0.9999999999999992
    vertex 8.500000000000012 1.0536452266229907e-16 3.9891000000000014
    vertex 8.500000000000012 10.0 3.9891000000000014
  endloop
endfacet
facet normal 4.406197628981091e-17 2.6437185773886528e-17 1.0
  outer loop
    vertex 13.00000000000001 4.550189230031109e-16 3.9891000000000134
    vertex 12.000000000000014 10.000000000000002 3.9891000000000028
    vertex 12.000000000000012 9.250133367610935e-16 3.9891000000000028
  endloop
endfacet
facet normal 4.406197628981091e-17 2.6437185773886528e-17 1.0
  outer loop
    vertex 12.000000000000014 10.000000000000002 3.9891000000000028
    vertex 13.00000000000001 4.550189230031109e-16 3.9891000000000134
    vertex 13.000000000000016 10.0 3.9891000000000125
  endloop
endfacet
facet normal 1.0 -9.399888275159665e-17 -2.6646154821712887e-15
  outer loop
    vertex 13.000000000000004 10.0 1.0658461928685155e-14
    vertex 13.00000000000001 4.550189230031109e-16 3.9891000000000134
    vertex 13.000000000000004 3.7599553100638655e-16 1.0658461928685155e-14
  endloop
endfacet
facet normal 1.0 -9.399888275159665e-17 -2.6646154821712887e-15
  outer loop
    vertex 13.00000000000001 4.550189230031109e-16 3.9891000000000134
    vertex 13.000000000000004 10.0 1.0658461928685155e-14
    vertex 13.000000000000016 10.0 3.9891000000000125
  endloop
endfacet
facet normal -1.0 2.8199664825478977e-16 4.406197628981091e-17
  outer loop
    vertex 12.000000000000012 9.250133367610935e-16 3.9891000000000028
    vertex 12.000000000000014 10.000000000000002 0.9999999999999996
    vertex 12.000000000000012 8.459899447643694e-16 0.9999999999999998
  endloop
endfacet
facet normal -1.0 2.8199664825478977e-16 4.406197628981091e-17
  outer loop
    vertex 12.000000000000014 10.000000000000002 0.9999999999999996
    vertex 12.000000000000012 9.250133367610935e-16 3.9891000000000028
    vertex 12.000000000000014 10.000000000000002 3.9891000000000028
  endloop
endfacet
endsolid Untitled-543d3f88
